<svg width="25" height="25" viewBox="0 0 25 25" fill="none" xmlns="http://www.w3.org/2000/svg">
<path d="M12.9375 16.8438C13.9735 16.8438 14.9671 16.4322 15.6996 15.6996C16.4322 14.9671 16.8438 13.9735 16.8438 12.9375C16.8438 11.9015 16.4322 10.9079 15.6996 10.1754C14.9671 9.4428 13.9735 9.03125 12.9375 9.03125C11.9015 9.03125 10.9079 9.4428 10.1754 10.1754C9.4428 10.9079 9.03125 11.9015 9.03125 12.9375C9.03125 13.9735 9.4428 14.9671 10.1754 15.6996C10.9079 16.4322 11.9015 16.8438 12.9375 16.8438ZM13.7188 2.78125C13.7188 2.57405 13.6364 2.37534 13.4899 2.22882C13.3434 2.08231 13.1447 2 12.9375 2C12.7303 2 12.5316 2.08231 12.3851 2.22882C12.2386 2.37534 12.1562 2.57405 12.1562 2.78125V5.16406C10.3633 5.34483 8.68798 6.13958 7.41378 7.41378C6.13958 8.68798 5.34483 10.3633 5.16406 12.1562H2.78125C2.57405 12.1562 2.37534 12.2386 2.22882 12.3851C2.08231 12.5316 2 12.7303 2 12.9375C2 13.1447 2.08231 13.3434 2.22882 13.4899C2.37534 13.6364 2.57405 13.7188 2.78125 13.7188H5.16406C5.34449 15.5119 6.13909 17.1877 7.41332 18.4622C8.68756 19.7367 10.3631 20.5317 12.1562 20.7125V23.0938C12.1562 23.301 12.2386 23.4997 12.3851 23.6462C12.5316 23.7927 12.7303 23.875 12.9375 23.875C13.1447 23.875 13.3434 23.7927 13.4899 23.6462C13.6364 23.4997 13.7188 23.301 13.7188 23.0938V20.7125C15.5119 20.5317 17.1874 19.7367 18.4617 18.4622C19.7359 17.1877 20.5305 15.5119 20.7109 13.7188H23.0938C23.301 13.7188 23.4997 13.6364 23.6462 13.4899C23.7927 13.3434 23.875 13.1447 23.875 12.9375C23.875 12.7303 23.7927 12.5316 23.6462 12.3851C23.4997 12.2386 23.301 12.1562 23.0938 12.1562H20.7109C20.5302 10.3633 19.7354 8.68798 18.4612 7.41378C17.187 6.13958 15.5117 5.34483 13.7188 5.16406V2.78125ZM12.9375 19.1875C11.2799 19.1875 9.69018 18.529 8.51808 17.3569C7.34598 16.1848 6.6875 14.5951 6.6875 12.9375C6.6875 11.2799 7.34598 9.69018 8.51808 8.51808C9.69018 7.34598 11.2799 6.6875 12.9375 6.6875C14.5951 6.6875 16.1848 7.34598 17.3569 8.51808C18.529 9.69018 19.1875 11.2799 19.1875 12.9375C19.1875 14.5951 18.529 16.1848 17.3569 17.3569C16.1848 18.529 14.5951 19.1875 12.9375 19.1875Z" fill="#111112"/>
</svg>
